<svg class="menu-icon-ccore-assets" width="16" height="16" viewBox="0 0 12 14" fill="none"
     xmlns="http://www.w3.org/2000/svg">
    <path
            d="M8.21 0H1.3C0.955219 0 0.624558 0.136964 0.380761 0.380761C0.136964 0.624558 4.76837e-08 0.955219 4.76837e-08 1.3V12.7C4.76837e-08 13.0448 0.136964 13.3754 0.380761 13.6192C0.624558 13.863 0.955219 14 1.3 14H10.3C10.6448 14 10.9754 13.863 11.2192 13.6192C11.463 13.3754 11.6 13.0448 11.6 12.7V3.39L8.21 0ZM9.6 4.21V5H7.05V2H7.39L9.6 4.21ZM2 12V2H5V5.75C4.99987 5.91845 5.03378 6.08518 5.0997 6.24019C5.16562 6.3952 5.26219 6.53529 5.38361 6.65204C5.50504 6.76879 5.6488 6.8598 5.80628 6.91959C5.96375 6.97939 6.13169 7.00674 6.3 7H9.6V12H2Z"/>
</svg>
