<svg class="menu-icon-ccore-people" width="16" height="16" viewBox="0 0 16 16" fill="none"
     xmlns="http://www.w3.org/2000/svg">
    <path
            d="M5 5C5.19778 5 5.39112 5.05865 5.55557 5.16853C5.72002 5.27841 5.84819 5.43459 5.92388 5.61732C5.99957 5.80004 6.01937 6.00111 5.98079 6.19509C5.9422 6.38907 5.84696 6.56725 5.70711 6.70711C5.56726 6.84696 5.38907 6.9422 5.19509 6.98079C5.00111 7.01937 4.80004 6.99957 4.61732 6.92388C4.43459 6.84819 4.27841 6.72002 4.16853 6.55557C4.05865 6.39112 4 6.19778 4 6C4 5.73478 4.10536 5.48043 4.29289 5.29289C4.48043 5.10536 4.73478 5 5 5V5ZM5 3C4.40666 3 3.82664 3.17595 3.33329 3.50559C2.83994 3.83524 2.45543 4.30377 2.22836 4.85195C2.0013 5.40013 1.94189 6.00333 2.05765 6.58527C2.1734 7.16721 2.45912 7.70176 2.87868 8.12132C3.29824 8.54088 3.83279 8.8266 4.41473 8.94236C4.99667 9.05811 5.59987 8.9987 6.14805 8.77164C6.69623 8.54458 7.16477 8.16006 7.49441 7.66671C7.82405 7.17336 8 6.59334 8 6C8 5.20435 7.68393 4.44129 7.12132 3.87868C6.55871 3.31607 5.79565 3 5 3Z"/>
    <path
            d="M8.8 16H1.2C0.88174 16 0.576516 15.8736 0.351472 15.6485C0.126428 15.4235 0 15.1183 0 14.8L0 13.4C0 12.4983 0.358213 11.6335 0.995837 10.9958C1.63346 10.3582 2.49826 10 3.4 10H6.6C7.04649 10 7.48862 10.0879 7.90112 10.2588C8.31363 10.4297 8.68844 10.6801 9.00416 10.9958C9.31988 11.3116 9.57032 11.6864 9.74119 12.0989C9.91206 12.5114 10 12.9535 10 13.4V14.8C10 15.1183 9.87357 15.4235 9.64853 15.6485C9.42348 15.8736 9.11826 16 8.8 16V16ZM2 14H8V13.4C8 13.0287 7.8525 12.6726 7.58995 12.4101C7.3274 12.1475 6.9713 12 6.6 12H3.4C3.0287 12 2.6726 12.1475 2.41005 12.4101C2.1475 12.6726 2 13.0287 2 13.4V14Z"/>
    <path
            d="M11 2C11.1978 2 11.3911 2.05865 11.5556 2.16853C11.72 2.27841 11.8482 2.43459 11.9239 2.61732C11.9996 2.80004 12.0194 3.00111 11.9808 3.19509C11.9422 3.38907 11.847 3.56725 11.7071 3.70711C11.5673 3.84696 11.3891 3.9422 11.1951 3.98079C11.0011 4.01937 10.8 3.99957 10.6173 3.92388C10.4346 3.84819 10.2784 3.72002 10.1685 3.55557C10.0587 3.39112 10 3.19778 10 3C10 2.73478 10.1054 2.48043 10.2929 2.29289C10.4804 2.10536 10.7348 2 11 2V2ZM11 0C10.4067 0 9.82664 0.175947 9.33329 0.505591C8.83994 0.835235 8.45543 1.30377 8.22836 1.85195C8.0013 2.40013 7.94189 3.00333 8.05765 3.58527C8.1734 4.16721 8.45912 4.70176 8.87868 5.12132C9.29824 5.54088 9.83279 5.8266 10.4147 5.94236C10.9967 6.05811 11.5999 5.9987 12.1481 5.77164C12.6962 5.54458 13.1648 5.16006 13.4944 4.66671C13.8241 4.17336 14 3.59334 14 3C14 2.20435 13.6839 1.44129 13.1213 0.87868C12.5587 0.31607 11.7957 0 11 0V0Z"/>
    <path
            d="M14.8 13H12C11.7348 13 11.4804 12.8946 11.2929 12.7071C11.1054 12.5196 11 12.2652 11 12C11 11.7348 11.1054 11.4804 11.2929 11.2929C11.4804 11.1054 11.7348 11 12 11H14V10.4C14 10.0287 13.8525 9.6726 13.5899 9.41005C13.3274 9.1475 12.9713 9 12.6 9H10C9.73478 9 9.48043 8.89464 9.29289 8.70711C9.10536 8.51957 9 8.26522 9 8C9 7.73478 9.10536 7.48043 9.29289 7.29289C9.48043 7.10536 9.73478 7 10 7H12.6C13.5017 7 14.3665 7.35821 15.0042 7.99584C15.6418 8.63346 16 9.49826 16 10.4V11.8C16 12.1183 15.8736 12.4235 15.6485 12.6485C15.4235 12.8736 15.1183 13 14.8 13V13Z"/>
</svg>
